<svg width="31" height="43" viewBox="0 0 31 43" fill="none" xmlns="http://www.w3.org/2000/svg">
<path d="M11.0971 41.913C11.1235 41.9392 11.1499 41.9741 11.1763 42.0003L11.0883 41.913L10.4985 41.3286L0.551552 31.4719C-0.143856 30.8352 -0.187866 29.771 0.454726 29.0819C0.489936 29.047 0.516341 29.0121 0.551552 28.9859L10.4897 19.138L11.0795 18.5535L11.1675 18.4663C11.1411 18.4925 11.1147 18.5274 11.0883 18.5535C10.6922 19.0158 10.4809 19.609 10.4897 20.2109V40.247C10.4897 40.8576 10.701 41.442 11.0971 41.913Z" fill="#15467B"/>
<path d="M30.991 31.4804L21.0528 41.3284L20.463 41.9128L20.375 42C20.4014 41.9738 20.4278 41.9389 20.4542 41.9128C20.8503 41.4505 21.0616 40.8573 21.0616 40.2467V20.2193C21.0616 20.2106 21.0616 20.1931 21.0616 20.1844V9.82181L30.9734 0L30.9998 28.9944L30.991 31.4804Z" fill="#208CCC"/>
<path d="M13.9937 17.4199H20.4725V27.2853H11.0801V20.3159C11.0801 18.7196 12.3829 17.4199 13.9937 17.4199Z" fill="#15467B"/>
<path d="M11.0801 32.9897H20.4813V39.7935C20.4813 41.4857 19.0993 42.8552 17.3916 42.8552H14.1698C12.4621 42.8552 11.0801 41.4857 11.0801 39.7935V32.9897Z" fill="#208CCC"/>
</svg>
